<svg height="22" viewBox="0 0 22 22" width="22" xmlns="http://www.w3.org/2000/svg"><g fill="#ff1744"><path d="m11 21.8625c5.995 0 10.8625-4.8675 10.8625-10.8625s-4.8675-10.8625-10.8625-10.8625-10.8625 4.8675-10.8625 10.8625 4.8675 10.8625 10.8625 10.8625zm0-19.8c4.9225 0 8.9375 4.015 8.9375 8.9375s-4.015 8.9375-8.9375 8.9375-8.9375-4.015-8.9375-8.9375 4.015-8.9375 8.9375-8.9375z"/><path d="m9.1025 14.41c.1925.1925.44.275.6875.275s.4675-.0825.66-.275l5.6925-5.4175c.385-.3575.4125-.9625.0275-1.3475-.3575-.385-.9625-.4125-1.3475-.0275l-5.0325 4.7575-2.6125-2.6125c-.385-.385-.99-.385-1.375 0s-.385.99 0 1.375z"/></g></svg>