<svg width="664" height="114" viewBox="0 0 664 114" fill="none" xmlns="http://www.w3.org/2000/svg">
<rect width="664" height="114" rx="8" fill="url(#paint0_linear_4719_154548)"/>
<path d="M225.609 36.0087C225.867 36.6089 226 37.2524 226 37.9023C226 38.5522 225.867 39.1957 225.609 39.7959C225.351 40.3961 224.972 40.9411 224.495 41.3996L215.04 50.5897C214.075 51.4941 212.783 52 211.439 52C210.094 52 208.802 51.4941 207.838 50.5897L197.497 40.5836C196.988 40.092 196.592 39.5021 196.336 38.8525C196.079 38.203 195.967 37.5084 196.008 36.8143L196.39 28.1488C196.458 26.9281 196.991 25.7747 197.886 24.9104C198.781 24.046 199.975 23.5317 201.239 23.4663L210.212 23" stroke="#4A4A4A" stroke-linecap="round" stroke-linejoin="round"/>
<path d="M204 32C205.105 32 206 31.1046 206 30C206 28.8954 205.105 28 204 28C202.895 28 202 28.8954 202 30C202 31.1046 202.895 32 204 32Z" stroke="#4A4A4A" stroke-miterlimit="10"/>
<path d="M215.493 31.5078L205.984 41.0169" stroke="#4A4A4A" stroke-linecap="round" stroke-linejoin="round"/>
<path d="M217 40L211 46" stroke="#4A4A4A" stroke-linecap="round" stroke-linejoin="round"/>
<path d="M218.699 22.1654L219.53 22.6358C219.758 22.7774 220.023 22.8495 220.291 22.8434H221.247C221.509 22.8419 221.766 22.9103 221.992 23.0417C222.219 23.1731 222.406 23.3626 222.534 23.5906L223.019 24.4071C223.147 24.6361 223.333 24.8271 223.559 24.9606L224.376 25.431C224.604 25.5594 224.794 25.7464 224.925 25.9727C225.056 26.199 225.125 26.4563 225.123 26.718V27.6727C225.12 27.9365 225.192 28.1958 225.331 28.42L225.802 29.2364C225.932 29.464 226 29.7216 226 29.9836C226 30.2457 225.932 30.5032 225.802 30.7309L225.331 31.5473C225.192 31.7715 225.12 32.0307 225.123 32.2945V33.2493C225.125 33.511 225.056 33.7683 224.925 33.9946C224.794 34.2208 224.604 34.4079 224.376 34.5362L223.559 35.0067C223.333 35.1402 223.147 35.3312 223.019 35.5602L222.534 36.3766C222.404 36.6027 222.216 36.7907 221.99 36.9218C221.764 37.0529 221.508 37.1226 221.247 37.1239H220.291C220.034 37.1243 219.781 37.191 219.558 37.3176L218.727 37.8019C218.499 37.9317 218.241 38 217.979 38C217.717 38 217.459 37.9317 217.232 37.8019L216.415 37.3176C216.186 37.1904 215.929 37.1238 215.667 37.1239H214.753C214.492 37.1226 214.236 37.0529 214.01 36.9218C213.784 36.7907 213.596 36.6027 213.466 36.3766L212.995 35.5602C212.863 35.3341 212.678 35.144 212.455 35.0067L211.624 34.5362C211.398 34.4057 211.21 34.2182 211.079 33.9924C210.948 33.7666 210.878 33.5104 210.877 33.2493V32.2945C210.875 32.0332 210.808 31.7765 210.683 31.5473L210.198 30.7309C210.068 30.5032 210 30.2457 210 29.9836C210 29.7216 210.068 29.464 210.198 29.2364L210.683 28.42C210.808 28.1908 210.875 27.934 210.877 27.6727V26.718C210.878 26.4705 210.94 26.2271 211.059 26.0097C211.177 25.7923 211.348 25.6078 211.555 25.4726L212.386 25.0021C212.609 24.8647 212.794 24.6746 212.926 24.4486L213.396 23.6322C213.525 23.3858 213.72 23.1809 213.961 23.0413C214.201 22.9016 214.476 22.833 214.753 22.8434H215.709C215.943 22.8555 216.176 22.8078 216.387 22.705L217.204 22.2346C217.426 22.094 217.68 22.0137 217.942 22.0016C218.205 21.9895 218.465 22.0459 218.699 22.1654Z" fill="white" stroke="#4A4A4A" stroke-linecap="round" stroke-linejoin="round"/>
<path d="M218 35C220.761 35 223 32.7614 223 30C223 27.2386 220.761 25 218 25C215.239 25 213 27.2386 213 30C213 32.7614 215.239 35 218 35Z" fill="#FBE8EF" stroke="#4A4A4A" stroke-miterlimit="10"/>
<path d="M216 30.3474L217.206 31.5535C217.284 31.6316 217.411 31.6316 217.489 31.5535L220.042 29" stroke="#444B55" stroke-linecap="round"/>
<path d="M181.642 71C181.568 71 181.502 70.972 181.446 70.916C181.39 70.86 181.362 70.7947 181.362 70.72C181.362 70.6733 181.372 70.622 181.39 70.566L184.932 61.48C184.97 61.3867 185.016 61.3167 185.072 61.27C185.138 61.2233 185.226 61.2 185.338 61.2H185.814C185.926 61.2 186.01 61.2233 186.066 61.27C186.132 61.3167 186.183 61.3867 186.22 61.48L189.762 70.566C189.781 70.622 189.79 70.6733 189.79 70.72C189.79 70.7947 189.762 70.86 189.706 70.916C189.65 70.972 189.585 71 189.51 71H189.23C189.137 71 189.067 70.9767 189.02 70.93C188.974 70.874 188.941 70.8273 188.922 70.79L188.054 68.55H183.098L182.23 70.79C182.221 70.8273 182.188 70.874 182.132 70.93C182.086 70.9767 182.016 71 181.922 71H181.642ZM183.434 67.71H187.718L185.576 62.194L183.434 67.71ZM193.9 71.14C193.265 71.14 192.738 71.0047 192.318 70.734C191.907 70.454 191.599 70.076 191.394 69.6C191.198 69.124 191.1 68.592 191.1 68.004V64.028C191.1 63.9347 191.128 63.86 191.184 63.804C191.24 63.748 191.315 63.72 191.408 63.72H191.646C191.739 63.72 191.814 63.748 191.87 63.804C191.926 63.86 191.954 63.9347 191.954 64.028V67.934C191.954 69.53 192.649 70.328 194.04 70.328C194.703 70.328 195.235 70.118 195.636 69.698C196.037 69.2687 196.238 68.6807 196.238 67.934V64.028C196.238 63.9347 196.266 63.86 196.322 63.804C196.378 63.748 196.453 63.72 196.546 63.72H196.784C196.877 63.72 196.952 63.748 197.008 63.804C197.064 63.86 197.092 63.9347 197.092 64.028V70.692C197.092 70.7853 197.064 70.86 197.008 70.916C196.952 70.972 196.877 71 196.784 71H196.546C196.453 71 196.378 70.972 196.322 70.916C196.266 70.86 196.238 70.7853 196.238 70.692V70.034C195.986 70.3607 195.683 70.6267 195.328 70.832C194.983 71.0373 194.507 71.14 193.9 71.14ZM201.81 71C201.324 71 200.942 70.8973 200.662 70.692C200.382 70.4867 200.186 70.2067 200.074 69.852C199.962 69.4973 199.906 69.1007 199.906 68.662V64.532H198.814C198.72 64.532 198.646 64.504 198.59 64.448C198.534 64.392 198.506 64.3173 198.506 64.224V64.028C198.506 63.9347 198.534 63.86 198.59 63.804C198.646 63.748 198.72 63.72 198.814 63.72H199.906V61.368C199.906 61.2747 199.934 61.2 199.99 61.144C200.046 61.088 200.12 61.06 200.214 61.06H200.452C200.545 61.06 200.62 61.088 200.676 61.144C200.732 61.2 200.76 61.2747 200.76 61.368V63.72H202.496C202.589 63.72 202.664 63.748 202.72 63.804C202.776 63.86 202.804 63.9347 202.804 64.028V64.224C202.804 64.3173 202.776 64.392 202.72 64.448C202.664 64.504 202.589 64.532 202.496 64.532H200.76V68.606C200.76 69.1007 200.839 69.488 200.998 69.768C201.166 70.048 201.46 70.188 201.88 70.188H202.636C202.729 70.188 202.804 70.216 202.86 70.272C202.916 70.328 202.944 70.4027 202.944 70.496V70.692C202.944 70.7853 202.916 70.86 202.86 70.916C202.804 70.972 202.729 71 202.636 71H201.81ZM204.713 71C204.62 71 204.545 70.972 204.489 70.916C204.433 70.86 204.405 70.7853 204.405 70.692V61.368C204.405 61.2747 204.433 61.2 204.489 61.144C204.545 61.088 204.62 61.06 204.713 61.06H204.951C205.044 61.06 205.119 61.088 205.175 61.144C205.231 61.2 205.259 61.2747 205.259 61.368V64.686C205.511 64.3593 205.814 64.0933 206.169 63.888C206.533 63.6827 207.014 63.58 207.611 63.58C208.246 63.58 208.773 63.72 209.193 64C209.622 64.2707 209.94 64.644 210.145 65.12C210.36 65.5867 210.467 66.1187 210.467 66.716V70.692C210.467 70.7853 210.439 70.86 210.383 70.916C210.327 70.972 210.252 71 210.159 71H209.921C209.828 71 209.753 70.972 209.697 70.916C209.641 70.86 209.613 70.7853 209.613 70.692V66.786C209.613 66.0393 209.431 65.456 209.067 65.036C208.703 64.6067 208.171 64.392 207.471 64.392C206.808 64.392 206.272 64.6067 205.861 65.036C205.46 65.456 205.259 66.0393 205.259 66.786V70.692C205.259 70.7853 205.231 70.86 205.175 70.916C205.119 70.972 205.044 71 204.951 71H204.713ZM215.364 71.14C214.459 71.14 213.74 70.846 213.208 70.258C212.676 69.6607 212.373 68.8813 212.298 67.92C212.289 67.78 212.284 67.5933 212.284 67.36C212.284 67.1267 212.289 66.94 212.298 66.8C212.345 66.1653 212.494 65.6053 212.746 65.12C212.998 64.6347 213.344 64.2567 213.782 63.986C214.23 63.7153 214.758 63.58 215.364 63.58C216.018 63.58 216.573 63.7247 217.03 64.014C217.488 64.3033 217.838 64.7187 218.08 65.26C218.332 65.8013 218.458 66.4453 218.458 67.192V67.402C218.458 67.4953 218.426 67.57 218.36 67.626C218.304 67.682 218.23 67.71 218.136 67.71H213.152C213.152 67.71 213.152 67.7287 213.152 67.766C213.152 67.8033 213.152 67.8313 213.152 67.85C213.171 68.27 213.269 68.6713 213.446 69.054C213.624 69.4273 213.876 69.7353 214.202 69.978C214.529 70.2113 214.916 70.328 215.364 70.328C215.766 70.328 216.097 70.2673 216.358 70.146C216.629 70.0247 216.844 69.894 217.002 69.754C217.161 69.6047 217.264 69.4927 217.31 69.418C217.394 69.2967 217.46 69.2267 217.506 69.208C217.553 69.18 217.628 69.166 217.73 69.166H217.954C218.038 69.166 218.108 69.194 218.164 69.25C218.23 69.2967 218.258 69.362 218.248 69.446C218.239 69.5767 218.164 69.74 218.024 69.936C217.894 70.1227 217.702 70.3093 217.45 70.496C217.208 70.6827 216.909 70.8367 216.554 70.958C216.2 71.0793 215.803 71.14 215.364 71.14ZM213.152 66.926H217.604V66.87C217.604 66.4033 217.516 65.9833 217.338 65.61C217.161 65.2367 216.904 64.9427 216.568 64.728C216.232 64.504 215.831 64.392 215.364 64.392C214.898 64.392 214.496 64.504 214.16 64.728C213.834 64.9427 213.582 65.2367 213.404 65.61C213.236 65.9833 213.152 66.4033 213.152 66.87V66.926ZM220.613 71C220.52 71 220.445 70.972 220.389 70.916C220.333 70.86 220.305 70.7853 220.305 70.692V64.028C220.305 63.9347 220.333 63.86 220.389 63.804C220.445 63.748 220.52 63.72 220.613 63.72H220.851C220.944 63.72 221.019 63.748 221.075 63.804C221.131 63.86 221.159 63.9347 221.159 64.028V64.686C221.411 64.3593 221.714 64.0933 222.069 63.888C222.433 63.6827 222.914 63.58 223.511 63.58C224.146 63.58 224.673 63.72 225.093 64C225.522 64.2707 225.84 64.644 226.045 65.12C226.26 65.5867 226.367 66.1187 226.367 66.716V70.692C226.367 70.7853 226.339 70.86 226.283 70.916C226.227 70.972 226.152 71 226.059 71H225.821C225.728 71 225.653 70.972 225.597 70.916C225.541 70.86 225.513 70.7853 225.513 70.692V66.786C225.513 66.0393 225.331 65.456 224.967 65.036C224.603 64.6067 224.071 64.392 223.371 64.392C222.708 64.392 222.172 64.6067 221.761 65.036C221.36 65.456 221.159 66.0393 221.159 66.786V70.692C221.159 70.7853 221.131 70.86 221.075 70.916C221.019 70.972 220.944 71 220.851 71H220.613ZM230.903 71C230.418 71 230.035 70.8973 229.755 70.692C229.475 70.4867 229.279 70.2067 229.167 69.852C229.055 69.4973 228.999 69.1007 228.999 68.662V64.532H227.907C227.814 64.532 227.739 64.504 227.683 64.448C227.627 64.392 227.599 64.3173 227.599 64.224V64.028C227.599 63.9347 227.627 63.86 227.683 63.804C227.739 63.748 227.814 63.72 227.907 63.72H228.999V61.368C228.999 61.2747 229.027 61.2 229.083 61.144C229.139 61.088 229.214 61.06 229.307 61.06H229.545C229.639 61.06 229.713 61.088 229.769 61.144C229.825 61.2 229.853 61.2747 229.853 61.368V63.72H231.589C231.683 63.72 231.757 63.748 231.813 63.804C231.869 63.86 231.897 63.9347 231.897 64.028V64.224C231.897 64.3173 231.869 64.392 231.813 64.448C231.757 64.504 231.683 64.532 231.589 64.532H229.853V68.606C229.853 69.1007 229.933 69.488 230.091 69.768C230.259 70.048 230.553 70.188 230.973 70.188H231.729C231.823 70.188 231.897 70.216 231.953 70.272C232.009 70.328 232.037 70.4027 232.037 70.496V70.692C232.037 70.7853 232.009 70.86 231.953 70.916C231.897 70.972 231.823 71 231.729 71H230.903ZM233.793 71C233.699 71 233.625 70.972 233.569 70.916C233.513 70.86 233.485 70.7853 233.485 70.692V64.028C233.485 63.9347 233.513 63.86 233.569 63.804C233.625 63.748 233.699 63.72 233.793 63.72H234.031C234.124 63.72 234.199 63.748 234.255 63.804C234.311 63.86 234.339 63.9347 234.339 64.028V70.692C234.339 70.7853 234.311 70.86 234.255 70.916C234.199 70.972 234.124 71 234.031 71H233.793ZM233.639 62.222C233.545 62.222 233.471 62.194 233.415 62.138C233.359 62.082 233.331 62.0073 233.331 61.914V61.382C233.331 61.2887 233.359 61.214 233.415 61.158C233.471 61.0927 233.545 61.06 233.639 61.06H234.171C234.264 61.06 234.339 61.0927 234.395 61.158C234.46 61.214 234.493 61.2887 234.493 61.382V61.914C234.493 62.0073 234.46 62.082 234.395 62.138C234.339 62.194 234.264 62.222 234.171 62.222H233.639ZM239.36 71.14C238.706 71.14 238.151 71.014 237.694 70.762C237.236 70.5007 236.886 70.1273 236.644 69.642C236.41 69.1567 236.284 68.5827 236.266 67.92C236.256 67.78 236.252 67.5933 236.252 67.36C236.252 67.1267 236.256 66.94 236.266 66.8C236.284 66.128 236.41 65.554 236.644 65.078C236.886 64.5927 237.236 64.224 237.694 63.972C238.151 63.7107 238.706 63.58 239.36 63.58C239.854 63.58 240.279 63.65 240.634 63.79C240.998 63.9207 241.296 64.098 241.53 64.322C241.763 64.5367 241.94 64.7747 242.062 65.036C242.183 65.2973 242.248 65.554 242.258 65.806C242.267 65.8993 242.239 65.974 242.174 66.03C242.108 66.086 242.034 66.114 241.95 66.114H241.754C241.66 66.114 241.59 66.0953 241.544 66.058C241.506 66.0113 241.464 65.932 241.418 65.82C241.222 65.288 240.951 64.9193 240.606 64.714C240.27 64.4993 239.854 64.392 239.36 64.392C238.725 64.392 238.198 64.588 237.778 64.98C237.367 65.3627 237.148 65.9927 237.12 66.87C237.101 67.1967 237.101 67.5233 237.12 67.85C237.148 68.7273 237.367 69.362 237.778 69.754C238.198 70.1367 238.725 70.328 239.36 70.328C239.854 70.328 240.27 70.2253 240.606 70.02C240.951 69.8053 241.222 69.432 241.418 68.9C241.464 68.788 241.506 68.7133 241.544 68.676C241.59 68.6293 241.66 68.606 241.754 68.606H241.95C242.034 68.606 242.108 68.634 242.174 68.69C242.239 68.746 242.267 68.8207 242.258 68.914C242.248 69.1193 242.206 69.3247 242.132 69.53C242.057 69.7353 241.94 69.936 241.782 70.132C241.632 70.328 241.446 70.5007 241.222 70.65C240.998 70.7993 240.727 70.916 240.41 71C240.102 71.0933 239.752 71.14 239.36 71.14ZM191.284 92C191.191 92 191.116 91.972 191.06 91.916C191.004 91.86 190.976 91.7853 190.976 91.692V82.522C190.976 82.4193 191.004 82.34 191.06 82.284C191.116 82.228 191.191 82.2 191.284 82.2H194.938C195.591 82.2 196.123 82.3167 196.534 82.55C196.954 82.7833 197.262 83.0913 197.458 83.474C197.654 83.8473 197.752 84.258 197.752 84.706C197.752 85.1073 197.687 85.4527 197.556 85.742C197.435 86.022 197.276 86.2507 197.08 86.428C196.893 86.6053 196.707 86.7407 196.52 86.834C196.893 87.0207 197.225 87.3193 197.514 87.73C197.803 88.1407 197.948 88.64 197.948 89.228C197.948 89.6947 197.836 90.1427 197.612 90.572C197.397 90.992 197.071 91.3373 196.632 91.608C196.203 91.8693 195.671 92 195.036 92H191.284ZM191.858 91.16H194.896C195.587 91.16 196.119 90.978 196.492 90.614C196.875 90.25 197.066 89.788 197.066 89.228C197.066 88.6587 196.875 88.1967 196.492 87.842C196.119 87.478 195.587 87.296 194.896 87.296H191.858V91.16ZM191.858 86.456H194.756C195.447 86.456 195.969 86.302 196.324 85.994C196.688 85.686 196.87 85.2567 196.87 84.706C196.87 84.1553 196.688 83.74 196.324 83.46C195.969 83.18 195.447 83.04 194.756 83.04H191.858V86.456ZM200.249 92C200.155 92 200.081 91.972 200.025 91.916C199.969 91.86 199.941 91.7853 199.941 91.692V85.042C199.941 84.9487 199.969 84.874 200.025 84.818C200.081 84.7527 200.155 84.72 200.249 84.72H200.473C200.566 84.72 200.641 84.7527 200.697 84.818C200.762 84.874 200.795 84.9487 200.795 85.042V85.686C200.963 85.3593 201.205 85.1167 201.523 84.958C201.84 84.7993 202.232 84.72 202.699 84.72H203.217C203.31 84.72 203.385 84.748 203.441 84.804C203.497 84.86 203.525 84.9347 203.525 85.028V85.224C203.525 85.3173 203.497 85.392 203.441 85.448C203.385 85.504 203.31 85.532 203.217 85.532H202.615C202.055 85.532 201.611 85.6953 201.285 86.022C200.958 86.3487 200.795 86.792 200.795 87.352V91.692C200.795 91.7853 200.762 91.86 200.697 91.916C200.641 91.972 200.566 92 200.473 92H200.249ZM206.658 92.14C206.21 92.14 205.795 92.0467 205.412 91.86C205.039 91.6733 204.736 91.426 204.502 91.118C204.269 90.8007 204.152 90.446 204.152 90.054C204.152 89.4193 204.409 88.9107 204.922 88.528C205.436 88.1453 206.103 87.898 206.924 87.786L209.136 87.478V86.988C209.136 86.4933 208.982 86.106 208.674 85.826C208.376 85.5367 207.895 85.392 207.232 85.392C206.747 85.392 206.355 85.49 206.056 85.686C205.758 85.8727 205.552 86.12 205.44 86.428C205.394 86.568 205.305 86.638 205.174 86.638H204.95C204.838 86.638 204.759 86.61 204.712 86.554C204.666 86.4887 204.642 86.414 204.642 86.33C204.642 86.1993 204.689 86.036 204.782 85.84C204.885 85.644 205.039 85.4527 205.244 85.266C205.45 85.07 205.716 84.9067 206.042 84.776C206.369 84.6453 206.766 84.58 207.232 84.58C207.783 84.58 208.236 84.6547 208.59 84.804C208.954 84.9533 209.234 85.1493 209.43 85.392C209.636 85.6253 209.78 85.8867 209.864 86.176C209.948 86.4653 209.99 86.75 209.99 87.03V91.692C209.99 91.7853 209.962 91.86 209.906 91.916C209.85 91.972 209.776 92 209.682 92H209.444C209.351 92 209.276 91.972 209.22 91.916C209.164 91.86 209.136 91.7853 209.136 91.692V91.034C209.024 91.202 208.866 91.37 208.66 91.538C208.455 91.706 208.189 91.8507 207.862 91.972C207.545 92.084 207.144 92.14 206.658 92.14ZM206.798 91.328C207.228 91.328 207.62 91.2347 207.974 91.048C208.329 90.8613 208.609 90.5767 208.814 90.194C209.029 89.802 209.136 89.312 209.136 88.724V88.248L207.33 88.5C206.565 88.6027 205.986 88.78 205.594 89.032C205.202 89.284 205.006 89.6013 205.006 89.984C205.006 90.292 205.095 90.544 205.272 90.74C205.45 90.936 205.674 91.0853 205.944 91.188C206.224 91.2813 206.509 91.328 206.798 91.328ZM212.512 92C212.419 92 212.344 91.972 212.288 91.916C212.232 91.86 212.204 91.7853 212.204 91.692V85.028C212.204 84.9347 212.232 84.86 212.288 84.804C212.344 84.748 212.419 84.72 212.512 84.72H212.75C212.844 84.72 212.918 84.748 212.974 84.804C213.03 84.86 213.058 84.9347 213.058 85.028V85.686C213.31 85.3593 213.614 85.0933 213.968 84.888C214.332 84.6827 214.813 84.58 215.41 84.58C216.045 84.58 216.572 84.72 216.992 85C217.422 85.2707 217.739 85.644 217.944 86.12C218.159 86.5867 218.266 87.1187 218.266 87.716V91.692C218.266 91.7853 218.238 91.86 218.182 91.916C218.126 91.972 218.052 92 217.958 92H217.72C217.627 92 217.552 91.972 217.496 91.916C217.44 91.86 217.412 91.7853 217.412 91.692V87.786C217.412 87.0393 217.23 86.456 216.866 86.036C216.502 85.6067 215.97 85.392 215.27 85.392C214.608 85.392 214.071 85.6067 213.66 86.036C213.259 86.456 213.058 87.0393 213.058 87.786V91.692C213.058 91.7853 213.03 91.86 212.974 91.916C212.918 91.972 212.844 92 212.75 92H212.512ZM223.094 92.14C222.553 92.14 222.091 92.042 221.708 91.846C221.335 91.65 221.031 91.3887 220.798 91.062C220.565 90.7353 220.392 90.3713 220.28 89.97C220.177 89.5687 220.117 89.1627 220.098 88.752C220.089 88.612 220.084 88.4813 220.084 88.36C220.084 88.2387 220.089 88.108 220.098 87.968C220.117 87.5573 220.177 87.1513 220.28 86.75C220.392 86.3487 220.565 85.9847 220.798 85.658C221.031 85.3313 221.335 85.07 221.708 84.874C222.091 84.678 222.553 84.58 223.094 84.58C223.673 84.58 224.149 84.6873 224.522 84.902C224.905 85.1167 225.213 85.378 225.446 85.686V82.368C225.446 82.2747 225.474 82.2 225.53 82.144C225.586 82.088 225.661 82.06 225.754 82.06H225.992C226.085 82.06 226.16 82.088 226.216 82.144C226.272 82.2 226.3 82.2747 226.3 82.368V91.692C226.3 91.7853 226.272 91.86 226.216 91.916C226.16 91.972 226.085 92 225.992 92H225.754C225.661 92 225.586 91.972 225.53 91.916C225.474 91.86 225.446 91.7853 225.446 91.692V91.034C225.213 91.3513 224.905 91.6173 224.522 91.832C224.149 92.0373 223.673 92.14 223.094 92.14ZM223.178 91.328C223.71 91.328 224.139 91.202 224.466 90.95C224.793 90.698 225.035 90.3853 225.194 90.012C225.353 89.6293 225.437 89.2467 225.446 88.864C225.455 88.724 225.46 88.542 225.46 88.318C225.46 88.094 225.455 87.912 225.446 87.772C225.437 87.3987 225.348 87.03 225.18 86.666C225.021 86.302 224.779 85.9987 224.452 85.756C224.125 85.5133 223.701 85.392 223.178 85.392C222.637 85.392 222.203 85.5133 221.876 85.756C221.559 85.9987 221.33 86.316 221.19 86.708C221.05 87.1 220.971 87.52 220.952 87.968C220.943 88.2293 220.943 88.4907 220.952 88.752C220.971 89.2 221.05 89.62 221.19 90.012C221.33 90.404 221.559 90.7213 221.876 90.964C222.203 91.2067 222.637 91.328 223.178 91.328ZM230.893 92.14C230.408 92.14 229.988 92.0747 229.633 91.944C229.288 91.8133 229.003 91.6593 228.779 91.482C228.555 91.2953 228.387 91.1133 228.275 90.936C228.173 90.7587 228.117 90.6233 228.107 90.53C228.098 90.4273 228.131 90.3527 228.205 90.306C228.28 90.25 228.35 90.222 228.415 90.222H228.625C228.681 90.222 228.728 90.2313 228.765 90.25C228.812 90.2687 228.868 90.32 228.933 90.404C229.055 90.5627 229.195 90.7167 229.353 90.866C229.512 91.006 229.713 91.118 229.955 91.202C230.207 91.286 230.52 91.328 230.893 91.328C231.453 91.328 231.915 91.2207 232.279 91.006C232.643 90.7913 232.825 90.474 232.825 90.054C232.825 89.7927 232.751 89.5827 232.601 89.424C232.461 89.2653 232.219 89.1253 231.873 89.004C231.528 88.8827 231.061 88.7567 230.473 88.626C229.885 88.486 229.433 88.318 229.115 88.122C228.807 87.926 228.597 87.702 228.485 87.45C228.373 87.1887 228.317 86.9087 228.317 86.61C228.317 86.2833 228.411 85.966 228.597 85.658C228.784 85.3407 229.059 85.084 229.423 84.888C229.797 84.6827 230.263 84.58 230.823 84.58C231.281 84.58 231.668 84.6407 231.985 84.762C232.312 84.8833 232.578 85.0327 232.783 85.21C232.989 85.378 233.138 85.546 233.231 85.714C233.334 85.882 233.39 86.0173 233.399 86.12C233.409 86.2133 233.381 86.288 233.315 86.344C233.25 86.4 233.175 86.428 233.091 86.428H232.881C232.807 86.428 232.746 86.414 232.699 86.386C232.653 86.3487 232.611 86.302 232.573 86.246C232.48 86.0967 232.368 85.9567 232.237 85.826C232.107 85.6953 231.929 85.5927 231.705 85.518C231.491 85.434 231.197 85.392 230.823 85.392C230.263 85.392 229.848 85.5087 229.577 85.742C229.307 85.966 229.171 86.2553 229.171 86.61C229.171 86.8153 229.227 86.9973 229.339 87.156C229.451 87.3053 229.661 87.4453 229.969 87.576C230.277 87.6973 230.725 87.828 231.313 87.968C231.911 88.0987 232.382 88.262 232.727 88.458C233.073 88.6447 233.315 88.8687 233.455 89.13C233.605 89.3913 233.679 89.6993 233.679 90.054C233.679 90.4273 233.572 90.7727 233.357 91.09C233.152 91.4073 232.839 91.664 232.419 91.86C232.009 92.0467 231.5 92.14 230.893 92.14Z" fill="#3B3B3B"/>
<path d="M351 43.6997C351 43.4235 350.776 43.1997 350.5 43.1997C350.224 43.1997 350 43.4235 350 43.6997H351ZM346.332 52.1329L345.987 51.7703L346.332 52.1329ZM336.499 56V55.5V56ZM326.667 52.1329L327.012 51.7703L326.667 52.1329ZM322.854 42.6464C322.658 42.4512 322.342 42.4512 322.146 42.6464L318.964 45.8284C318.769 46.0237 318.769 46.3403 318.964 46.5355C319.16 46.7308 319.476 46.7308 319.672 46.5355L322.5 43.7071L325.328 46.5355C325.524 46.7308 325.84 46.7308 326.036 46.5355C326.231 46.3403 326.231 46.0237 326.036 45.8284L322.854 42.6464ZM350 43.6997C350 46.3249 348.525 49.3603 345.987 51.7703L346.676 52.4955C349.353 49.9533 351 46.6717 351 43.6997H350ZM345.987 51.7703C343.475 54.1557 340.063 55.5 336.499 55.5V56.5C340.312 56.5 343.973 55.0622 346.676 52.4955L345.987 51.7703ZM336.499 55.5C332.936 55.5 329.524 54.1557 327.012 51.7703L326.323 52.4955C329.026 55.0622 332.687 56.5 336.499 56.5V55.5ZM327.012 51.7703C324.487 49.3729 323 46.3433 323 43H322C322 46.6601 323.632 49.9408 326.323 52.4955L327.012 51.7703Z" fill="#4A4A4A"/>
<path d="M328.5 38.5943C328.5 37.9797 329.049 37.5106 329.656 37.6065L336.5 38.688V48.1688C336.5 48.4916 336.199 48.7298 335.885 48.6553L329.269 47.0873C328.818 46.9804 328.5 46.5777 328.5 46.1143V38.5943Z" fill="#FBE8EF" stroke="#4A4A4A" stroke-linecap="round"/>
<path d="M344.5 38.5943C344.5 37.9797 343.951 37.5106 343.344 37.6065L336.5 38.688V48.1688C336.5 48.4916 336.801 48.7298 337.115 48.6553L343.731 47.0873C344.182 46.9804 344.5 46.5777 344.5 46.1143V38.5943Z" fill="#FBE8EF" stroke="#4A4A4A" stroke-linecap="round"/>
<path d="M328.5 37.4222L336.848 38.8443L344.5 37.4222L336.848 36L328.5 37.4222Z" fill="white" stroke="#4A4A4A" stroke-linecap="round" stroke-linejoin="round"/>
<path d="M330.5 40.9766L334.5 41.6876" stroke="#4A4A4A" stroke-linecap="round" stroke-linejoin="round"/>
<path d="M342.5 40.9766L338.5 41.6876" stroke="#4A4A4A" stroke-linecap="round" stroke-linejoin="round"/>
<path d="M322.005 38.8575C321.967 39.1312 322.159 39.3831 322.433 39.4202C322.706 39.4574 322.958 39.2656 322.995 38.992L322.005 38.8575ZM327.673 29.9969L327.366 29.6023L327.673 29.9969ZM337.745 27.0584L337.7 27.5564L337.745 27.0584ZM347.094 31.7497L346.719 32.0813L347.094 31.7497ZM350.166 40.3722C350.372 40.5566 350.688 40.5394 350.872 40.3339L353.877 36.9841C354.061 36.7785 354.044 36.4624 353.839 36.278C353.633 36.0936 353.317 36.1108 353.133 36.3163L350.462 39.2939L347.484 36.623C347.278 36.4386 346.962 36.4558 346.778 36.6613C346.594 36.8669 346.611 37.183 346.816 37.3674L350.166 40.3722ZM322.995 38.992C323.455 35.6075 325.24 32.5247 327.98 30.3914L327.366 29.6023C324.423 31.8934 322.5 35.2096 322.005 38.8575L322.995 38.992ZM327.98 30.3914C330.721 28.2579 334.205 27.2409 337.7 27.5564L337.79 26.5604C334.045 26.2224 330.309 27.3115 327.366 29.6023L327.98 30.3914ZM337.7 27.5564C341.196 27.8719 344.428 29.4949 346.719 32.0813L347.468 31.4181C345.004 28.6379 341.536 26.8985 337.79 26.5604L337.7 27.5564ZM346.719 32.0813C348.697 34.3127 349.842 37.1117 350.001 40.0271L350.999 39.9729C350.829 36.8305 349.594 33.8172 347.468 31.4181L346.719 32.0813Z" fill="#4A4A4A"/>
<path d="M325.078 74C324.998 74 324.934 73.976 324.886 73.928C324.838 73.88 324.814 73.816 324.814 73.736V65.876C324.814 65.788 324.838 65.72 324.886 65.672C324.934 65.624 324.998 65.6 325.078 65.6H329.758C329.846 65.6 329.914 65.624 329.962 65.672C330.01 65.72 330.034 65.788 330.034 65.876V66.056C330.034 66.136 330.01 66.2 329.962 66.248C329.914 66.296 329.846 66.32 329.758 66.32H325.57V69.38H329.494C329.582 69.38 329.65 69.404 329.698 69.452C329.746 69.5 329.77 69.568 329.77 69.656V69.836C329.77 69.916 329.746 69.98 329.698 70.028C329.65 70.076 329.582 70.1 329.494 70.1H325.57V73.28H329.854C329.942 73.28 330.01 73.304 330.058 73.352C330.106 73.4 330.13 73.468 330.13 73.556V73.736C330.13 73.816 330.106 73.88 330.058 73.928C330.01 73.976 329.942 74 329.854 74H325.078ZM333.439 74.12C333.055 74.12 332.699 74.04 332.371 73.88C332.051 73.72 331.791 73.508 331.591 73.244C331.391 72.972 331.291 72.668 331.291 72.332C331.291 71.788 331.511 71.352 331.951 71.024C332.391 70.696 332.963 70.484 333.667 70.388L335.563 70.124V69.704C335.563 69.28 335.431 68.948 335.167 68.708C334.911 68.46 334.499 68.336 333.931 68.336C333.515 68.336 333.179 68.42 332.923 68.588C332.667 68.748 332.491 68.96 332.395 69.224C332.355 69.344 332.279 69.404 332.167 69.404H331.975C331.879 69.404 331.811 69.38 331.771 69.332C331.731 69.276 331.711 69.212 331.711 69.14C331.711 69.028 331.751 68.888 331.831 68.72C331.919 68.552 332.051 68.388 332.227 68.228C332.403 68.06 332.631 67.92 332.911 67.808C333.191 67.696 333.531 67.64 333.931 67.64C334.403 67.64 334.791 67.704 335.095 67.832C335.407 67.96 335.647 68.128 335.815 68.336C335.991 68.536 336.115 68.76 336.187 69.008C336.259 69.256 336.295 69.5 336.295 69.74V73.736C336.295 73.816 336.271 73.88 336.223 73.928C336.175 73.976 336.111 74 336.031 74H335.827C335.747 74 335.683 73.976 335.635 73.928C335.587 73.88 335.563 73.816 335.563 73.736V73.172C335.467 73.316 335.331 73.46 335.155 73.604C334.979 73.748 334.751 73.872 334.471 73.976C334.199 74.072 333.855 74.12 333.439 74.12ZM333.559 73.424C333.927 73.424 334.263 73.344 334.567 73.184C334.871 73.024 335.111 72.78 335.287 72.452C335.471 72.116 335.563 71.696 335.563 71.192V70.784L334.015 71C333.359 71.088 332.863 71.24 332.527 71.456C332.191 71.672 332.023 71.944 332.023 72.272C332.023 72.536 332.099 72.752 332.251 72.92C332.403 73.088 332.595 73.216 332.827 73.304C333.067 73.384 333.311 73.424 333.559 73.424ZM340.173 74.12C339.757 74.12 339.397 74.064 339.093 73.952C338.797 73.84 338.553 73.708 338.361 73.556C338.169 73.396 338.025 73.24 337.929 73.088C337.841 72.936 337.793 72.82 337.785 72.74C337.777 72.652 337.805 72.588 337.869 72.548C337.933 72.5 337.993 72.476 338.049 72.476H338.229C338.277 72.476 338.317 72.484 338.349 72.5C338.389 72.516 338.437 72.56 338.493 72.632C338.597 72.768 338.717 72.9 338.853 73.028C338.989 73.148 339.161 73.244 339.369 73.316C339.585 73.388 339.853 73.424 340.173 73.424C340.653 73.424 341.049 73.332 341.361 73.148C341.673 72.964 341.829 72.692 341.829 72.332C341.829 72.108 341.765 71.928 341.637 71.792C341.517 71.656 341.309 71.536 341.013 71.432C340.717 71.328 340.317 71.22 339.813 71.108C339.309 70.988 338.921 70.844 338.649 70.676C338.385 70.508 338.205 70.316 338.109 70.1C338.013 69.876 337.965 69.636 337.965 69.38C337.965 69.1 338.045 68.828 338.205 68.564C338.365 68.292 338.601 68.072 338.913 67.904C339.233 67.728 339.633 67.64 340.113 67.64C340.505 67.64 340.837 67.692 341.109 67.796C341.389 67.9 341.617 68.028 341.793 68.18C341.969 68.324 342.097 68.468 342.177 68.612C342.265 68.756 342.313 68.872 342.321 68.96C342.329 69.04 342.305 69.104 342.249 69.152C342.193 69.2 342.129 69.224 342.057 69.224H341.877C341.813 69.224 341.761 69.212 341.721 69.188C341.681 69.156 341.645 69.116 341.613 69.068C341.533 68.94 341.437 68.82 341.325 68.708C341.213 68.596 341.061 68.508 340.869 68.444C340.685 68.372 340.433 68.336 340.113 68.336C339.633 68.336 339.277 68.436 339.045 68.636C338.813 68.828 338.697 69.076 338.697 69.38C338.697 69.556 338.745 69.712 338.841 69.848C338.937 69.976 339.117 70.096 339.381 70.208C339.645 70.312 340.029 70.424 340.533 70.544C341.045 70.656 341.449 70.796 341.745 70.964C342.041 71.124 342.249 71.316 342.369 71.54C342.497 71.764 342.561 72.028 342.561 72.332C342.561 72.652 342.469 72.948 342.285 73.22C342.109 73.492 341.841 73.712 341.481 73.88C341.129 74.04 340.693 74.12 340.173 74.12ZM344.956 76.28C344.892 76.28 344.836 76.256 344.788 76.208C344.74 76.16 344.716 76.104 344.716 76.04C344.716 76.008 344.72 75.972 344.728 75.932C344.744 75.9 344.764 75.856 344.788 75.8L345.712 73.64L343.42 68.24C343.372 68.12 343.348 68.04 343.348 68C343.348 67.936 343.372 67.88 343.42 67.832C343.468 67.784 343.524 67.76 343.588 67.76H343.84C343.92 67.76 343.98 67.78 344.02 67.82C344.068 67.852 344.1 67.892 344.116 67.94L346.132 72.692L348.196 67.94C348.22 67.892 348.252 67.852 348.292 67.82C348.332 67.78 348.392 67.76 348.472 67.76H348.712C348.776 67.76 348.832 67.784 348.88 67.832C348.928 67.88 348.952 67.936 348.952 68C348.952 68.04 348.928 68.12 348.88 68.24L345.472 76.1C345.448 76.148 345.416 76.188 345.376 76.22C345.336 76.26 345.276 76.28 345.196 76.28H344.956ZM316.593 89C316.513 89 316.449 88.976 316.401 88.928C316.353 88.88 316.329 88.816 316.329 88.736V80.876C316.329 80.788 316.353 80.72 316.401 80.672C316.449 80.624 316.513 80.6 316.593 80.6H319.389C320.229 80.6 320.897 80.8 321.393 81.2C321.897 81.6 322.149 82.208 322.149 83.024C322.149 83.664 321.989 84.176 321.669 84.56C321.349 84.944 320.905 85.204 320.337 85.34L322.269 88.628C322.293 88.676 322.305 88.72 322.305 88.76C322.305 88.824 322.281 88.88 322.233 88.928C322.185 88.976 322.129 89 322.065 89H321.921C321.793 89 321.697 88.968 321.633 88.904C321.569 88.832 321.513 88.756 321.465 88.676L319.557 85.448H317.085V88.736C317.085 88.816 317.061 88.88 317.013 88.928C316.965 88.976 316.897 89 316.809 89H316.593ZM317.085 84.728H319.329C320.025 84.728 320.541 84.588 320.877 84.308C321.221 84.02 321.393 83.592 321.393 83.024C321.393 82.456 321.221 82.032 320.877 81.752C320.541 81.464 320.025 81.32 319.329 81.32H317.085V84.728ZM326.095 89.12C325.319 89.12 324.703 88.868 324.247 88.364C323.791 87.852 323.531 87.184 323.467 86.36C323.459 86.24 323.455 86.08 323.455 85.88C323.455 85.68 323.459 85.52 323.467 85.4C323.507 84.856 323.635 84.376 323.851 83.96C324.067 83.544 324.363 83.22 324.739 82.988C325.123 82.756 325.575 82.64 326.095 82.64C326.655 82.64 327.131 82.764 327.523 83.012C327.915 83.26 328.215 83.616 328.423 84.08C328.639 84.544 328.747 85.096 328.747 85.736V85.916C328.747 85.996 328.719 86.06 328.663 86.108C328.615 86.156 328.551 86.18 328.471 86.18H324.199C324.199 86.18 324.199 86.196 324.199 86.228C324.199 86.26 324.199 86.284 324.199 86.3C324.215 86.66 324.299 87.004 324.451 87.332C324.603 87.652 324.819 87.916 325.099 88.124C325.379 88.324 325.711 88.424 326.095 88.424C326.439 88.424 326.723 88.372 326.947 88.268C327.179 88.164 327.363 88.052 327.499 87.932C327.635 87.804 327.723 87.708 327.763 87.644C327.835 87.54 327.891 87.48 327.931 87.464C327.971 87.44 328.035 87.428 328.123 87.428H328.315C328.387 87.428 328.447 87.452 328.495 87.5C328.551 87.54 328.575 87.596 328.567 87.668C328.559 87.78 328.495 87.92 328.375 88.088C328.263 88.248 328.099 88.408 327.883 88.568C327.675 88.728 327.419 88.86 327.115 88.964C326.811 89.068 326.471 89.12 326.095 89.12ZM324.199 85.508H328.015V85.46C328.015 85.06 327.939 84.7 327.787 84.38C327.635 84.06 327.415 83.808 327.127 83.624C326.839 83.432 326.495 83.336 326.095 83.336C325.695 83.336 325.351 83.432 325.063 83.624C324.783 83.808 324.567 84.06 324.415 84.38C324.271 84.7 324.199 85.06 324.199 85.46V85.508ZM332.383 89C331.967 89 331.639 88.912 331.399 88.736C331.159 88.56 330.991 88.32 330.895 88.016C330.799 87.712 330.751 87.372 330.751 86.996V83.456H329.815C329.735 83.456 329.671 83.432 329.623 83.384C329.575 83.336 329.551 83.272 329.551 83.192V83.024C329.551 82.944 329.575 82.88 329.623 82.832C329.671 82.784 329.735 82.76 329.815 82.76H330.751V80.744C330.751 80.664 330.775 80.6 330.823 80.552C330.871 80.504 330.935 80.48 331.015 80.48H331.219C331.299 80.48 331.363 80.504 331.411 80.552C331.459 80.6 331.483 80.664 331.483 80.744V82.76H332.971C333.051 82.76 333.115 82.784 333.163 82.832C333.211 82.88 333.235 82.944 333.235 83.024V83.192C333.235 83.272 333.211 83.336 333.163 83.384C333.115 83.432 333.051 83.456 332.971 83.456H331.483V86.948C331.483 87.372 331.551 87.704 331.687 87.944C331.831 88.184 332.083 88.304 332.443 88.304H333.091C333.171 88.304 333.235 88.328 333.283 88.376C333.331 88.424 333.355 88.488 333.355 88.568V88.736C333.355 88.816 333.331 88.88 333.283 88.928C333.235 88.976 333.171 89 333.091 89H332.383ZM336.935 89.12C336.391 89.12 335.939 89.004 335.579 88.772C335.227 88.532 334.963 88.208 334.787 87.8C334.619 87.392 334.535 86.936 334.535 86.432V83.024C334.535 82.944 334.559 82.88 334.607 82.832C334.655 82.784 334.719 82.76 334.799 82.76H335.003C335.083 82.76 335.147 82.784 335.195 82.832C335.243 82.88 335.267 82.944 335.267 83.024V86.372C335.267 87.74 335.863 88.424 337.055 88.424C337.623 88.424 338.079 88.244 338.423 87.884C338.767 87.516 338.939 87.012 338.939 86.372V83.024C338.939 82.944 338.963 82.88 339.011 82.832C339.059 82.784 339.123 82.76 339.203 82.76H339.407C339.487 82.76 339.551 82.784 339.599 82.832C339.647 82.88 339.671 82.944 339.671 83.024V88.736C339.671 88.816 339.647 88.88 339.599 88.928C339.551 88.976 339.487 89 339.407 89H339.203C339.123 89 339.059 88.976 339.011 88.928C338.963 88.88 338.939 88.816 338.939 88.736V88.172C338.723 88.452 338.463 88.68 338.159 88.856C337.863 89.032 337.455 89.12 336.935 89.12ZM341.879 89C341.799 89 341.735 88.976 341.687 88.928C341.639 88.88 341.615 88.816 341.615 88.736V83.036C341.615 82.956 341.639 82.892 341.687 82.844C341.735 82.788 341.799 82.76 341.879 82.76H342.071C342.151 82.76 342.215 82.788 342.263 82.844C342.319 82.892 342.347 82.956 342.347 83.036V83.588C342.491 83.308 342.699 83.1 342.971 82.964C343.243 82.828 343.579 82.76 343.979 82.76H344.423C344.503 82.76 344.567 82.784 344.615 82.832C344.663 82.88 344.687 82.944 344.687 83.024V83.192C344.687 83.272 344.663 83.336 344.615 83.384C344.567 83.432 344.503 83.456 344.423 83.456H343.907C343.427 83.456 343.047 83.596 342.767 83.876C342.487 84.156 342.347 84.536 342.347 85.016V88.736C342.347 88.816 342.319 88.88 342.263 88.928C342.215 88.976 342.151 89 342.071 89H341.879ZM346.05 89C345.97 89 345.906 88.976 345.858 88.928C345.81 88.88 345.786 88.816 345.786 88.736V83.024C345.786 82.944 345.81 82.88 345.858 82.832C345.906 82.784 345.97 82.76 346.05 82.76H346.254C346.334 82.76 346.398 82.784 346.446 82.832C346.494 82.88 346.518 82.944 346.518 83.024V83.588C346.734 83.308 346.994 83.08 347.298 82.904C347.61 82.728 348.022 82.64 348.534 82.64C349.078 82.64 349.53 82.76 349.89 83C350.258 83.232 350.53 83.552 350.706 83.96C350.89 84.36 350.982 84.816 350.982 85.328V88.736C350.982 88.816 350.958 88.88 350.91 88.928C350.862 88.976 350.798 89 350.718 89H350.514C350.434 89 350.37 88.976 350.322 88.928C350.274 88.88 350.25 88.816 350.25 88.736V85.388C350.25 84.748 350.094 84.248 349.782 83.888C349.47 83.52 349.014 83.336 348.414 83.336C347.846 83.336 347.386 83.52 347.034 83.888C346.69 84.248 346.518 84.748 346.518 85.388V88.736C346.518 88.816 346.494 88.88 346.446 88.928C346.398 88.976 346.334 89 346.254 89H346.05ZM354.845 89.12C354.429 89.12 354.069 89.064 353.765 88.952C353.469 88.84 353.225 88.708 353.033 88.556C352.841 88.396 352.697 88.24 352.601 88.088C352.513 87.936 352.465 87.82 352.457 87.74C352.449 87.652 352.477 87.588 352.541 87.548C352.605 87.5 352.665 87.476 352.721 87.476H352.901C352.949 87.476 352.989 87.484 353.021 87.5C353.061 87.516 353.109 87.56 353.165 87.632C353.269 87.768 353.389 87.9 353.525 88.028C353.661 88.148 353.833 88.244 354.041 88.316C354.257 88.388 354.525 88.424 354.845 88.424C355.325 88.424 355.721 88.332 356.033 88.148C356.345 87.964 356.501 87.692 356.501 87.332C356.501 87.108 356.437 86.928 356.309 86.792C356.189 86.656 355.981 86.536 355.685 86.432C355.389 86.328 354.989 86.22 354.485 86.108C353.981 85.988 353.593 85.844 353.321 85.676C353.057 85.508 352.877 85.316 352.781 85.1C352.685 84.876 352.637 84.636 352.637 84.38C352.637 84.1 352.717 83.828 352.877 83.564C353.037 83.292 353.273 83.072 353.585 82.904C353.905 82.728 354.305 82.64 354.785 82.64C355.177 82.64 355.509 82.692 355.781 82.796C356.061 82.9 356.289 83.028 356.465 83.18C356.641 83.324 356.769 83.468 356.849 83.612C356.937 83.756 356.985 83.872 356.993 83.96C357.001 84.04 356.977 84.104 356.921 84.152C356.865 84.2 356.801 84.224 356.729 84.224H356.549C356.485 84.224 356.433 84.212 356.393 84.188C356.353 84.156 356.317 84.116 356.285 84.068C356.205 83.94 356.109 83.82 355.997 83.708C355.885 83.596 355.733 83.508 355.541 83.444C355.357 83.372 355.105 83.336 354.785 83.336C354.305 83.336 353.949 83.436 353.717 83.636C353.485 83.828 353.369 84.076 353.369 84.38C353.369 84.556 353.417 84.712 353.513 84.848C353.609 84.976 353.789 85.096 354.053 85.208C354.317 85.312 354.701 85.424 355.205 85.544C355.717 85.656 356.121 85.796 356.417 85.964C356.713 86.124 356.921 86.316 357.041 86.54C357.169 86.764 357.233 87.028 357.233 87.332C357.233 87.652 357.141 87.948 356.957 88.22C356.781 88.492 356.513 88.712 356.153 88.88C355.801 89.04 355.365 89.12 354.845 89.12Z" fill="#3B3B3B"/>
<path d="M459.124 35.8785L457.408 29.707C457.125 28.6872 456.064 28.0751 455.039 28.3398L444.356 31.0989C443.331 31.3636 442.73 32.4048 443.013 33.4246L449.054 55.1544C449.338 56.1742 450.398 56.7863 451.423 56.5217L462.107 53.7625C463.132 53.4978 463.733 52.4566 463.449 51.4368L463.256 50.741" stroke="#4A4A4A" stroke-linecap="round"/>
<rect x="452.188" y="38.916" width="19.6361" height="11.2206" rx="1.91647" fill="white" stroke="#4A4A4A" stroke-linecap="round"/>
<ellipse rx="0.962171" ry="0.931956" transform="matrix(0.968232 -0.250052 0.267848 0.963461 456.877 52.6788)" fill="#4A4A4A"/>
<path d="M449.305 52.1317L456.573 50.2637" stroke="#4A4A4A" stroke-linecap="round"/>
<rect x="449.602" y="39.8848" width="19.6361" height="11.2206" rx="1.91647" transform="rotate(-45 449.602 39.8848)" fill="#FBE8EF" stroke="#4A4A4A" stroke-linecap="round"/>
<path d="M457.352 35.4141L460.355 32.4594" stroke="#4A4A4A" stroke-miterlimit="10" stroke-linecap="round" stroke-linejoin="round"/>
<path d="M458.859 36.8438L461.863 33.8891" stroke="#4A4A4A" stroke-miterlimit="10" stroke-linecap="round" stroke-linejoin="round"/>
<path d="M464.877 38.2045L460.362 38.2726C460.362 38.2726 462.238 35.6986 461.107 34.6247C461.107 34.6247 459.599 33.1928 457.802 34.9709" stroke="#4A4A4A" stroke-miterlimit="10" stroke-linecap="round" stroke-linejoin="round"/>
<path d="M462.523 46.668H469.628" stroke="#4A4A4A" stroke-linecap="round"/>
<path d="M445.078 74C444.998 74 444.934 73.976 444.886 73.928C444.838 73.88 444.814 73.816 444.814 73.736V65.876C444.814 65.788 444.838 65.72 444.886 65.672C444.934 65.624 444.998 65.6 445.078 65.6H449.758C449.846 65.6 449.914 65.624 449.962 65.672C450.01 65.72 450.034 65.788 450.034 65.876V66.056C450.034 66.136 450.01 66.2 449.962 66.248C449.914 66.296 449.846 66.32 449.758 66.32H445.57V69.38H449.494C449.582 69.38 449.65 69.404 449.698 69.452C449.746 69.5 449.77 69.568 449.77 69.656V69.836C449.77 69.916 449.746 69.98 449.698 70.028C449.65 70.076 449.582 70.1 449.494 70.1H445.57V73.28H449.854C449.942 73.28 450.01 73.304 450.058 73.352C450.106 73.4 450.13 73.468 450.13 73.556V73.736C450.13 73.816 450.106 73.88 450.058 73.928C450.01 73.976 449.942 74 449.854 74H445.078ZM453.439 74.12C453.055 74.12 452.699 74.04 452.371 73.88C452.051 73.72 451.791 73.508 451.591 73.244C451.391 72.972 451.291 72.668 451.291 72.332C451.291 71.788 451.511 71.352 451.951 71.024C452.391 70.696 452.963 70.484 453.667 70.388L455.563 70.124V69.704C455.563 69.28 455.431 68.948 455.167 68.708C454.911 68.46 454.499 68.336 453.931 68.336C453.515 68.336 453.179 68.42 452.923 68.588C452.667 68.748 452.491 68.96 452.395 69.224C452.355 69.344 452.279 69.404 452.167 69.404H451.975C451.879 69.404 451.811 69.38 451.771 69.332C451.731 69.276 451.711 69.212 451.711 69.14C451.711 69.028 451.751 68.888 451.831 68.72C451.919 68.552 452.051 68.388 452.227 68.228C452.403 68.06 452.631 67.92 452.911 67.808C453.191 67.696 453.531 67.64 453.931 67.64C454.403 67.64 454.791 67.704 455.095 67.832C455.407 67.96 455.647 68.128 455.815 68.336C455.991 68.536 456.115 68.76 456.187 69.008C456.259 69.256 456.295 69.5 456.295 69.74V73.736C456.295 73.816 456.271 73.88 456.223 73.928C456.175 73.976 456.111 74 456.031 74H455.827C455.747 74 455.683 73.976 455.635 73.928C455.587 73.88 455.563 73.816 455.563 73.736V73.172C455.467 73.316 455.331 73.46 455.155 73.604C454.979 73.748 454.751 73.872 454.471 73.976C454.199 74.072 453.855 74.12 453.439 74.12ZM453.559 73.424C453.927 73.424 454.263 73.344 454.567 73.184C454.871 73.024 455.111 72.78 455.287 72.452C455.471 72.116 455.563 71.696 455.563 71.192V70.784L454.015 71C453.359 71.088 452.863 71.24 452.527 71.456C452.191 71.672 452.023 71.944 452.023 72.272C452.023 72.536 452.099 72.752 452.251 72.92C452.403 73.088 452.595 73.216 452.827 73.304C453.067 73.384 453.311 73.424 453.559 73.424ZM460.173 74.12C459.757 74.12 459.397 74.064 459.093 73.952C458.797 73.84 458.553 73.708 458.361 73.556C458.169 73.396 458.025 73.24 457.929 73.088C457.841 72.936 457.793 72.82 457.785 72.74C457.777 72.652 457.805 72.588 457.869 72.548C457.933 72.5 457.993 72.476 458.049 72.476H458.229C458.277 72.476 458.317 72.484 458.349 72.5C458.389 72.516 458.437 72.56 458.493 72.632C458.597 72.768 458.717 72.9 458.853 73.028C458.989 73.148 459.161 73.244 459.369 73.316C459.585 73.388 459.853 73.424 460.173 73.424C460.653 73.424 461.049 73.332 461.361 73.148C461.673 72.964 461.829 72.692 461.829 72.332C461.829 72.108 461.765 71.928 461.637 71.792C461.517 71.656 461.309 71.536 461.013 71.432C460.717 71.328 460.317 71.22 459.813 71.108C459.309 70.988 458.921 70.844 458.649 70.676C458.385 70.508 458.205 70.316 458.109 70.1C458.013 69.876 457.965 69.636 457.965 69.38C457.965 69.1 458.045 68.828 458.205 68.564C458.365 68.292 458.601 68.072 458.913 67.904C459.233 67.728 459.633 67.64 460.113 67.64C460.505 67.64 460.837 67.692 461.109 67.796C461.389 67.9 461.617 68.028 461.793 68.18C461.969 68.324 462.097 68.468 462.177 68.612C462.265 68.756 462.313 68.872 462.321 68.96C462.329 69.04 462.305 69.104 462.249 69.152C462.193 69.2 462.129 69.224 462.057 69.224H461.877C461.813 69.224 461.761 69.212 461.721 69.188C461.681 69.156 461.645 69.116 461.613 69.068C461.533 68.94 461.437 68.82 461.325 68.708C461.213 68.596 461.061 68.508 460.869 68.444C460.685 68.372 460.433 68.336 460.113 68.336C459.633 68.336 459.277 68.436 459.045 68.636C458.813 68.828 458.697 69.076 458.697 69.38C458.697 69.556 458.745 69.712 458.841 69.848C458.937 69.976 459.117 70.096 459.381 70.208C459.645 70.312 460.029 70.424 460.533 70.544C461.045 70.656 461.449 70.796 461.745 70.964C462.041 71.124 462.249 71.316 462.369 71.54C462.497 71.764 462.561 72.028 462.561 72.332C462.561 72.652 462.469 72.948 462.285 73.22C462.109 73.492 461.841 73.712 461.481 73.88C461.129 74.04 460.693 74.12 460.173 74.12ZM464.956 76.28C464.892 76.28 464.836 76.256 464.788 76.208C464.74 76.16 464.716 76.104 464.716 76.04C464.716 76.008 464.72 75.972 464.728 75.932C464.744 75.9 464.764 75.856 464.788 75.8L465.712 73.64L463.42 68.24C463.372 68.12 463.348 68.04 463.348 68C463.348 67.936 463.372 67.88 463.42 67.832C463.468 67.784 463.524 67.76 463.588 67.76H463.84C463.92 67.76 463.98 67.78 464.02 67.82C464.068 67.852 464.1 67.892 464.116 67.94L466.132 72.692L468.196 67.94C468.22 67.892 468.252 67.852 468.292 67.82C468.332 67.78 468.392 67.76 468.472 67.76H468.712C468.776 67.76 468.832 67.784 468.88 67.832C468.928 67.88 468.952 67.936 468.952 68C468.952 68.04 468.928 68.12 468.88 68.24L465.472 76.1C465.448 76.148 465.416 76.188 465.376 76.22C465.336 76.26 465.276 76.28 465.196 76.28H464.956ZM430.675 89C430.595 89 430.531 88.976 430.483 88.928C430.435 88.88 430.411 88.816 430.411 88.736V80.876C430.411 80.788 430.435 80.72 430.483 80.672C430.531 80.624 430.595 80.6 430.675 80.6H433.591C434.151 80.6 434.635 80.696 435.043 80.888C435.459 81.072 435.779 81.348 436.003 81.716C436.235 82.084 436.351 82.54 436.351 83.084C436.351 83.628 436.235 84.084 436.003 84.452C435.779 84.82 435.459 85.1 435.043 85.292C434.635 85.476 434.151 85.568 433.591 85.568H431.167V88.736C431.167 88.816 431.143 88.88 431.095 88.928C431.047 88.976 430.979 89 430.891 89H430.675ZM431.167 84.848H433.531C434.227 84.848 434.743 84.696 435.079 84.392C435.423 84.088 435.595 83.652 435.595 83.084C435.595 82.516 435.423 82.08 435.079 81.776C434.743 81.472 434.227 81.32 433.531 81.32H431.167V84.848ZM439.365 89.12C438.981 89.12 438.625 89.04 438.297 88.88C437.977 88.72 437.717 88.508 437.517 88.244C437.317 87.972 437.217 87.668 437.217 87.332C437.217 86.788 437.437 86.352 437.877 86.024C438.317 85.696 438.889 85.484 439.593 85.388L441.489 85.124V84.704C441.489 84.28 441.357 83.948 441.093 83.708C440.837 83.46 440.425 83.336 439.857 83.336C439.441 83.336 439.105 83.42 438.849 83.588C438.593 83.748 438.417 83.96 438.321 84.224C438.281 84.344 438.205 84.404 438.093 84.404H437.901C437.805 84.404 437.737 84.38 437.697 84.332C437.657 84.276 437.637 84.212 437.637 84.14C437.637 84.028 437.677 83.888 437.757 83.72C437.845 83.552 437.977 83.388 438.153 83.228C438.329 83.06 438.557 82.92 438.837 82.808C439.117 82.696 439.457 82.64 439.857 82.64C440.329 82.64 440.717 82.704 441.021 82.832C441.333 82.96 441.573 83.128 441.741 83.336C441.917 83.536 442.041 83.76 442.113 84.008C442.185 84.256 442.221 84.5 442.221 84.74V88.736C442.221 88.816 442.197 88.88 442.149 88.928C442.101 88.976 442.037 89 441.957 89H441.753C441.673 89 441.609 88.976 441.561 88.928C441.513 88.88 441.489 88.816 441.489 88.736V88.172C441.393 88.316 441.257 88.46 441.081 88.604C440.905 88.748 440.677 88.872 440.397 88.976C440.125 89.072 439.781 89.12 439.365 89.12ZM439.485 88.424C439.853 88.424 440.189 88.344 440.493 88.184C440.797 88.024 441.037 87.78 441.213 87.452C441.397 87.116 441.489 86.696 441.489 86.192V85.784L439.941 86C439.285 86.088 438.789 86.24 438.453 86.456C438.117 86.672 437.949 86.944 437.949 87.272C437.949 87.536 438.025 87.752 438.177 87.92C438.329 88.088 438.521 88.216 438.753 88.304C438.993 88.384 439.237 88.424 439.485 88.424ZM445.069 91.28C445.005 91.28 444.949 91.256 444.901 91.208C444.853 91.16 444.829 91.104 444.829 91.04C444.829 91.008 444.833 90.972 444.841 90.932C444.857 90.9 444.877 90.856 444.901 90.8L445.825 88.64L443.533 83.24C443.485 83.12 443.461 83.04 443.461 83C443.461 82.936 443.485 82.88 443.533 82.832C443.581 82.784 443.637 82.76 443.701 82.76H443.953C444.033 82.76 444.093 82.78 444.133 82.82C444.181 82.852 444.213 82.892 444.229 82.94L446.245 87.692L448.309 82.94C448.333 82.892 448.365 82.852 448.405 82.82C448.445 82.78 448.505 82.76 448.585 82.76H448.825C448.889 82.76 448.945 82.784 448.993 82.832C449.041 82.88 449.065 82.936 449.065 83C449.065 83.04 449.041 83.12 448.993 83.24L445.585 91.1C445.561 91.148 445.529 91.188 445.489 91.22C445.449 91.26 445.389 91.28 445.309 91.28H445.069ZM450.664 89C450.584 89 450.52 88.976 450.472 88.928C450.424 88.88 450.4 88.816 450.4 88.736V83.024C450.4 82.944 450.424 82.88 450.472 82.832C450.52 82.784 450.584 82.76 450.664 82.76H450.868C450.948 82.76 451.012 82.784 451.06 82.832C451.108 82.88 451.132 82.944 451.132 83.024V83.444C451.332 83.188 451.568 82.992 451.84 82.856C452.12 82.712 452.456 82.64 452.848 82.64C453.744 82.64 454.384 83.016 454.768 83.768C454.952 83.424 455.22 83.152 455.572 82.952C455.932 82.744 456.344 82.64 456.808 82.64C457.232 82.64 457.612 82.74 457.948 82.94C458.292 83.132 458.56 83.42 458.752 83.804C458.952 84.188 459.052 84.668 459.052 85.244V88.736C459.052 88.816 459.028 88.88 458.98 88.928C458.932 88.976 458.868 89 458.788 89H458.584C458.504 89 458.44 88.976 458.392 88.928C458.344 88.88 458.32 88.816 458.32 88.736V85.364C458.32 84.836 458.244 84.428 458.092 84.14C457.94 83.844 457.74 83.636 457.492 83.516C457.244 83.396 456.976 83.336 456.688 83.336C456.448 83.336 456.204 83.396 455.956 83.516C455.708 83.636 455.5 83.844 455.332 84.14C455.172 84.428 455.092 84.836 455.092 85.364V88.736C455.092 88.816 455.068 88.88 455.02 88.928C454.972 88.976 454.908 89 454.828 89H454.624C454.544 89 454.48 88.976 454.432 88.928C454.384 88.88 454.36 88.816 454.36 88.736V85.364C454.36 84.836 454.28 84.428 454.12 84.14C453.96 83.844 453.756 83.636 453.508 83.516C453.26 83.396 453 83.336 452.728 83.336C452.488 83.336 452.244 83.396 451.996 83.516C451.748 83.636 451.54 83.844 451.372 84.14C451.212 84.428 451.132 84.832 451.132 85.352V88.736C451.132 88.816 451.108 88.88 451.06 88.928C451.012 88.976 450.948 89 450.868 89H450.664ZM463.251 89.12C462.475 89.12 461.859 88.868 461.403 88.364C460.947 87.852 460.687 87.184 460.623 86.36C460.615 86.24 460.611 86.08 460.611 85.88C460.611 85.68 460.615 85.52 460.623 85.4C460.663 84.856 460.791 84.376 461.007 83.96C461.223 83.544 461.519 83.22 461.895 82.988C462.279 82.756 462.731 82.64 463.251 82.64C463.811 82.64 464.287 82.764 464.679 83.012C465.071 83.26 465.371 83.616 465.579 84.08C465.795 84.544 465.903 85.096 465.903 85.736V85.916C465.903 85.996 465.875 86.06 465.819 86.108C465.771 86.156 465.707 86.18 465.627 86.18H461.355C461.355 86.18 461.355 86.196 461.355 86.228C461.355 86.26 461.355 86.284 461.355 86.3C461.371 86.66 461.455 87.004 461.607 87.332C461.759 87.652 461.975 87.916 462.255 88.124C462.535 88.324 462.867 88.424 463.251 88.424C463.595 88.424 463.879 88.372 464.103 88.268C464.335 88.164 464.519 88.052 464.655 87.932C464.791 87.804 464.879 87.708 464.919 87.644C464.991 87.54 465.047 87.48 465.087 87.464C465.127 87.44 465.191 87.428 465.279 87.428H465.471C465.543 87.428 465.603 87.452 465.651 87.5C465.707 87.54 465.731 87.596 465.723 87.668C465.715 87.78 465.651 87.92 465.531 88.088C465.419 88.248 465.255 88.408 465.039 88.568C464.831 88.728 464.575 88.86 464.271 88.964C463.967 89.068 463.627 89.12 463.251 89.12ZM461.355 85.508H465.171V85.46C465.171 85.06 465.095 84.7 464.943 84.38C464.791 84.06 464.571 83.808 464.283 83.624C463.995 83.432 463.651 83.336 463.251 83.336C462.851 83.336 462.507 83.432 462.219 83.624C461.939 83.808 461.723 84.06 461.571 84.38C461.427 84.7 461.355 85.06 461.355 85.46V85.508ZM467.75 89C467.67 89 467.606 88.976 467.558 88.928C467.51 88.88 467.486 88.816 467.486 88.736V83.024C467.486 82.944 467.51 82.88 467.558 82.832C467.606 82.784 467.67 82.76 467.75 82.76H467.954C468.034 82.76 468.098 82.784 468.146 82.832C468.194 82.88 468.218 82.944 468.218 83.024V83.588C468.434 83.308 468.694 83.08 468.998 82.904C469.31 82.728 469.722 82.64 470.234 82.64C470.778 82.64 471.23 82.76 471.59 83C471.958 83.232 472.23 83.552 472.406 83.96C472.59 84.36 472.682 84.816 472.682 85.328V88.736C472.682 88.816 472.658 88.88 472.61 88.928C472.562 88.976 472.498 89 472.418 89H472.214C472.134 89 472.07 88.976 472.022 88.928C471.974 88.88 471.95 88.816 471.95 88.736V85.388C471.95 84.748 471.794 84.248 471.482 83.888C471.17 83.52 470.714 83.336 470.114 83.336C469.546 83.336 469.086 83.52 468.734 83.888C468.39 84.248 468.218 84.748 468.218 85.388V88.736C468.218 88.816 468.194 88.88 468.146 88.928C468.098 88.976 468.034 89 467.954 89H467.75ZM476.57 89C476.154 89 475.826 88.912 475.586 88.736C475.346 88.56 475.178 88.32 475.082 88.016C474.986 87.712 474.938 87.372 474.938 86.996V83.456H474.002C473.922 83.456 473.858 83.432 473.81 83.384C473.762 83.336 473.738 83.272 473.738 83.192V83.024C473.738 82.944 473.762 82.88 473.81 82.832C473.858 82.784 473.922 82.76 474.002 82.76H474.938V80.744C474.938 80.664 474.962 80.6 475.01 80.552C475.058 80.504 475.122 80.48 475.202 80.48H475.406C475.486 80.48 475.55 80.504 475.598 80.552C475.646 80.6 475.67 80.664 475.67 80.744V82.76H477.158C477.238 82.76 477.302 82.784 477.35 82.832C477.398 82.88 477.422 82.944 477.422 83.024V83.192C477.422 83.272 477.398 83.336 477.35 83.384C477.302 83.432 477.238 83.456 477.158 83.456H475.67V86.948C475.67 87.372 475.738 87.704 475.874 87.944C476.018 88.184 476.27 88.304 476.63 88.304H477.278C477.358 88.304 477.422 88.328 477.47 88.376C477.518 88.424 477.542 88.488 477.542 88.568V88.736C477.542 88.816 477.518 88.88 477.47 88.928C477.422 88.976 477.358 89 477.278 89H476.57ZM480.763 89.12C480.347 89.12 479.987 89.064 479.683 88.952C479.387 88.84 479.143 88.708 478.951 88.556C478.759 88.396 478.615 88.24 478.519 88.088C478.431 87.936 478.383 87.82 478.375 87.74C478.367 87.652 478.395 87.588 478.459 87.548C478.523 87.5 478.583 87.476 478.639 87.476H478.819C478.867 87.476 478.907 87.484 478.939 87.5C478.979 87.516 479.027 87.56 479.083 87.632C479.187 87.768 479.307 87.9 479.443 88.028C479.579 88.148 479.751 88.244 479.959 88.316C480.175 88.388 480.443 88.424 480.763 88.424C481.243 88.424 481.639 88.332 481.951 88.148C482.263 87.964 482.419 87.692 482.419 87.332C482.419 87.108 482.355 86.928 482.227 86.792C482.107 86.656 481.899 86.536 481.603 86.432C481.307 86.328 480.907 86.22 480.403 86.108C479.899 85.988 479.511 85.844 479.239 85.676C478.975 85.508 478.795 85.316 478.699 85.1C478.603 84.876 478.555 84.636 478.555 84.38C478.555 84.1 478.635 83.828 478.795 83.564C478.955 83.292 479.191 83.072 479.503 82.904C479.823 82.728 480.223 82.64 480.703 82.64C481.095 82.64 481.427 82.692 481.699 82.796C481.979 82.9 482.207 83.028 482.383 83.18C482.559 83.324 482.687 83.468 482.767 83.612C482.855 83.756 482.903 83.872 482.911 83.96C482.919 84.04 482.895 84.104 482.839 84.152C482.783 84.2 482.719 84.224 482.647 84.224H482.467C482.403 84.224 482.351 84.212 482.311 84.188C482.271 84.156 482.235 84.116 482.203 84.068C482.123 83.94 482.027 83.82 481.915 83.708C481.803 83.596 481.651 83.508 481.459 83.444C481.275 83.372 481.023 83.336 480.703 83.336C480.223 83.336 479.867 83.436 479.635 83.636C479.403 83.828 479.287 84.076 479.287 84.38C479.287 84.556 479.335 84.712 479.431 84.848C479.527 84.976 479.707 85.096 479.971 85.208C480.235 85.312 480.619 85.424 481.123 85.544C481.635 85.656 482.039 85.796 482.335 85.964C482.631 86.124 482.839 86.316 482.959 86.54C483.087 86.764 483.151 87.028 483.151 87.332C483.151 87.652 483.059 87.948 482.875 88.22C482.699 88.492 482.431 88.712 482.071 88.88C481.719 89.04 481.283 89.12 480.763 89.12Z" fill="#3B3B3B"/>
<defs>
<linearGradient id="paint0_linear_4719_154548" x1="0" y1="0" x2="17.7741" y2="182.673" gradientUnits="userSpaceOnUse">
<stop stop-color="#FCF0F4"/>
<stop offset="0.671875" stop-color="#FFFCFD"/>
<stop offset="1" stop-color="white"/>
</linearGradient>
</defs>
</svg>
