<?xml version="1.0" encoding="UTF-8"?>
<svg id="Layer_1" data-name="Layer 1" xmlns="http://www.w3.org/2000/svg" xmlns:xlink="http://www.w3.org/1999/xlink" viewBox="0 0 52.38 34.82">
  <defs>
    <style>
      .cls-1 {
        fill: url(#linear-gradient);
        stroke-width: 0px;
      }
    </style>
    <linearGradient id="linear-gradient" x1="0" y1="17.41" x2="52.38" y2="17.41" gradientUnits="userSpaceOnUse">
      <stop offset="0" stop-color="#0064e0"/>
      <stop offset=".06" stop-color="#006ae5"/>
      <stop offset=".22" stop-color="#007af4"/>
      <stop offset=".81" stop-color="#007df6"/>
      <stop offset="1" stop-color="#0080f9"/>
    </linearGradient>
  </defs>
  <path class="cls-1" d="M15.05.02C6.53.02,0,11.11,0,22.84c0,7.34,3.55,11.98,9.5,11.98,4.28,0,7.36-2.02,12.85-11.59,0,0,2.29-4.03,3.85-6.81l3.26-5.51c2.77-4.27,5.06-6.4,7.77-6.4,5.64,0,10.15,8.3,10.15,18.51,0,3.89-1.27,6.14-3.92,6.14s-3.74-1.67-8.54-9.4l-4.42,3.85c5,8.38,7.79,11.22,12.85,11.22,5.8,0,9.02-4.71,9.02-12.21,0-12.29-6.67-22.61-14.79-22.61-4.29,0-7.66,3.24-10.7,7.34l-3.37,4.95c-3.33,5.12-5.36,8.32-5.36,8.32-4.44,6.97-5.97,8.52-8.45,8.52s-4.05-2.24-4.05-6.21c0-8.52,4.25-17.23,9.32-17.23L15.05.02ZM27.18,11.2l-3.66,1.13c-3.33,5.12-5.36,8.32-5.36,8.32-4.44,6.97-5.97,8.52-8.45,8.52s-4.05-2.24-4.05-6.21c0-8.52,4.25-17.23,9.32-17.23l.07-5.69C6.53.02,0,11.11,0,22.84c0,7.34,3.55,11.98,9.5,11.98,4.28,0,7.36-2.02,12.85-11.59,0,0,2.29-4.03,3.85-6.81l.97-5.22ZM30.51,23.61c5,8.38,7.79,11.21,12.85,11.21l.11-5.67c-2.53,0-3.74-1.66-8.54-9.39-4.03-6.56-6.09-9.84-8.03-12.4C22.72,2.05,19.23.02,15.05.02l-.07,5.69c2.75,0,5.03,1.59,8.54,6.61,1.47,2.07,4.49,6.99,6.99,11.29ZM26.88,7.36C22.71,2.05,19.22.02,15.03.02S7.25,2.62,4.56,6.63l4.03,4.13c1.68-3.04,3.95-5.03,6.38-5.03,2.75,0,5.01,1.57,8.52,6.59l3.38-4.95ZM33.29,28c3.44,5,6.03,6.82,10.07,6.82,5.8,0,9.02-4.71,9.02-12.21l-4.99.4c0,3.89-1.27,6.14-3.92,6.14-2.04,0-3.23-1.09-6.14-5.58l-4.04,4.43Z"/>
</svg>