<svg width="16" height="16" viewBox="0 0 16 16" fill="none" xmlns="http://www.w3.org/2000/svg">
<path fill-rule="evenodd" clip-rule="evenodd" d="M6.8 13.6C3.04446 13.6 0 10.5555 0 6.8C0 3.04446 3.04446 0 6.8 0C10.5555 0 13.6 3.04446 13.6 6.8C13.6 8.3895 13.0546 9.85162 12.1408 11.0094L15.7657 14.6343C16.0781 14.9467 16.0781 15.4533 15.7657 15.7657C15.4533 16.0781 14.9467 16.0781 14.6343 15.7657L11.0094 12.1408C9.85162 13.0546 8.3895 13.6 6.8 13.6ZM10.5278 10.4254C10.5094 10.4407 10.4916 10.4571 10.4743 10.4743C10.4571 10.4916 10.4407 10.5094 10.4254 10.5278C9.48873 11.4389 8.20989 12 6.8 12C3.92812 12 1.6 9.67188 1.6 6.8C1.6 3.92812 3.92812 1.6 6.8 1.6C9.67188 1.6 12 3.92812 12 6.8C12 8.20989 11.4389 9.48873 10.5278 10.4254Z" fill="#B8B8B8"/>
</svg>
